<!-- <svg xmlns="http://www.w3.org/2000/svg" width="61" height="25" viewBox="0 0 131.639 35.402"><path d="M.263.395h131.605v35.384H.263z" style="fill:#00664d;fill-opacity:1" transform="translate(-.263 -.394)"/><g fill="none" fill-rule="evenodd"><path fill="#fff" d="M49.83.41h82.072v35.386H49.83Z" style="stroke-width:1.01519" transform="matrix(1 0 0 1.00044 -.263 -.41)"/><text fill="#fff" font-family="ArialMT, Arial" font-size="26.4" transform="matrix(1 0 0 1.00044 .237 -.41)"><tspan x="0" y="28.44">eco</tspan></text><text fill="#007e5f" font-family="ArialMT, Arial" font-size="26.4" transform="matrix(1 0 0 1.00044 .237 -.41)"><tspan x="57.44" y="28.44">Index</tspan></text></g></svg> -->
<svg xmlns="http://www.w3.org/2000/svg" width="61" height="15" viewBox="0 0 138 35"><g fill="none" fill-rule="evenodd" style="display:inline"><path d="M-7.034.41h138v35h-138z" style="display:inline;fill:#00664d;stroke-width:.163553" transform="translate(7.034 -.41)"/><path fill="#fff" d="M49.966.41h81v35h-81Z" style="stroke-width:1.00301" transform="translate(7.034 -.41)"/><text fill="#fff" font-family="ArialMT, Arial" font-size="26.4" transform="translate(7.534 -.41)"><tspan x="0" y="28.44">eco</tspan></text><text fill="#007e5f" font-family="ArialMT, Arial" font-size="26.4" style="display:inline" transform="translate(7.534 -.41)"><tspan x="57.44" y="28.44">Index</tspan></text></g></svg>