<svg xmlns="http://www.w3.org/2000/svg" width="43.439" height="42.366"><defs><clipPath id="a" clipPathUnits="userSpaceOnUse"><path d="M0 551.986h530.973V0H0Z"/></clipPath></defs><g clip-path="url(#a)" transform="matrix(1.33333 0 0 -1.33333 -181.76 224.727)"><path d="M0 0c-8.995 0-16.288-7.293-16.288-16.29 0-7.197 4.667-13.302 11.14-15.457.815-.149 1.112.354 1.112.786 0 .386-.014 1.411-.022 2.77-4.531-.984-5.487 2.184-5.487 2.184-.741 1.882-1.809 2.383-1.809 2.383-1.479 1.01.112.99.112.99 1.635-.115 2.495-1.679 2.495-1.679 1.453-2.489 3.813-1.77 4.741-1.353.148 1.052.568 1.77 1.034 2.177-3.617.411-7.42 1.809-7.42 8.051 0 1.778.635 3.232 1.677 4.371-.168.412-.727 2.068.159 4.311 0 0 1.368.438 4.48-1.67a15.56 15.56 0 0 0 4.078.548 15.582 15.582 0 0 0 4.078-.548c3.11 2.108 4.475 1.67 4.475 1.67.889-2.243.33-3.899.162-4.311 1.044-1.139 1.675-2.593 1.675-4.371 0-6.258-3.809-7.635-7.438-8.038.585-.503 1.106-1.497 1.106-3.017 0-2.177-.02-3.934-.02-4.468 0-.436.293-.943 1.12-.784 6.468 2.159 11.131 8.26 11.131 15.455C16.291-7.293 8.997 0 0 0" style="fill:#fff;fill-opacity:1;fill-rule:evenodd;stroke:none" transform="translate(152.608 168.545)"/></g></svg>